<svg width="824.111767578125px" height="201.60001220703126px" xmlns="http://www.w3.org/2000/svg" viewBox="-162.05588378906248 -25.800006103515628 824.111767578125 201.60001220703126" style="background: rgba(108, 102, 97, 0);" preserveAspectRatio="xMidYMid"><defs><filter id="editing-hole" x="-100%" y="-100%" width="300%" height="300%"><feFlood flood-color="#e096dc" result="black"></feFlood><feMorphology operator="dilate" radius="2" in="SourceGraphic" result="erode"></feMorphology><feGaussianBlur in="erode" stdDeviation="4" result="blur"></feGaussianBlur><feOffset in="blur" dx="2" dy="2" result="offset"></feOffset><feComposite operator="atop" in="offset" in2="black" result="merge"></feComposite><feComposite operator="in" in="merge" in2="SourceGraphic" result="inner-shadow"></feComposite></filter></defs><g filter="url(#editing-hole)"><g transform="translate(-42.392993688583374, 118.97999477386475)"><path d="M3.00-7.17L3.00-7.17L3.00-7.17Q3.00-18.72 9.84-30.07L9.84-30.07L9.84-30.07Q1.93-35.10 1.93-44.94L1.93-44.94L1.93-44.94Q1.93-56.82 12.41-66.02L12.41-66.02L12.41-66.02Q24.18-76.40 42.80-76.40L42.80-76.40L42.80-76.40Q51.36-76.40 61.20-73.94L61.20-73.94L61.20-73.94Q63.45-73.40 80.36-65.64L80.36-65.64L80.36-65.64Q97.26-57.89 104.65-57.89L104.65-57.89L104.65-57.89Q109.57-57.89 112.03-60.67L112.03-60.67L112.03-60.67Q113.31-62.06 113.31-63.66L113.31-63.66L113.31-63.66Q113.31-65.27 111.92-66.55L111.92-66.55L111.92-66.55Q111.17-67.62 111.17-67.94L111.17-67.94L111.17-67.94Q111.17-68.27 111.76-68.27L111.76-68.27L111.76-68.27Q112.35-68.27 113.79-66.39L113.79-66.39L113.79-66.39Q115.24-64.52 115.24-62.01L115.24-62.01L115.24-62.01Q115.24-59.49 111.87-57.19L111.87-57.19L111.87-57.19Q108.50-54.89 103.36-54.89L103.36-54.89L103.36-54.89Q95.34-54.89 78.43-62.65L78.43-62.65L78.43-62.65Q61.52-70.41 57.19-71.26L57.19-71.26L57.19-71.26Q52.86-72.12 47.29-72.12L47.29-72.12L47.29-72.12Q25.14-72.12 12.41-57.78L12.41-57.78L12.41-57.78Q10.91-56.17 8.88-51.31L8.88-51.31L8.88-51.31Q6.85-46.44 6.85-41.94L6.85-41.94L6.85-41.94Q6.85-35.74 11.23-32.31L11.23-32.31L11.23-32.31Q16.80-40.45 24.40-45.26L24.40-45.26L24.40-45.26Q31.99-50.08 39.80-50.08L39.80-50.08L39.80-50.08Q49.43-50.08 49.43-42.59L49.43-42.59L49.43-42.59Q49.43-33.60 38.89-23.06L38.89-23.06L38.89-23.06Q28.36-12.52 19.37-12.52L19.37-12.52L19.37-12.52Q13.59-12.52 13.59-17.44L13.59-17.44L13.59-17.44Q13.59-19.15 14.50-20.44L14.50-20.44L14.50-20.44Q15.41-21.72 16.69-21.40L16.69-21.40L16.48-18.94L16.48-18.94Q16.48-17.33 21.40-17.33L21.40-17.33L21.40-17.33Q28.68-17.33 36.75-24.82L36.75-24.82L36.75-24.82Q44.83-32.31 46.55-39.48L46.55-39.48L46.55-39.48Q46.97-41.09 46.97-42.37L46.97-42.37L46.97-42.37Q46.97-47.19 40.82-47.19L40.82-47.19L40.82-47.19Q34.67-47.19 28.09-42.48L28.09-42.48L28.09-42.48Q21.51-37.77 15.73-30.07L15.73-30.07L15.73-30.07Q16.16-29.85 19.05-29.21L19.05-29.21L25.47-29.00L25.47-29.00Q30.17-28.78 30.17-27.93L30.17-27.93L30.17-27.93Q30.17-26.43 25.68-26.43L25.68-26.43L25.68-26.43Q25.36-26.43 25.04-26.43L25.04-26.43L25.04-26.43Q18.51-26.43 14.34-28.03L14.34-28.03L14.34-28.03Q6.10-15.41 6.10-4.81L6.10-4.81L6.10-4.81Q6.10 8.88 16.69 8.88L16.69 8.88L16.69 8.88Q28.68 8.88 41.62-7.81L41.62-7.81L62.59-39.05L62.59-39.05Q74.36-56.17 83.03-56.60L83.03-56.60L87.10-55.64L87.10-55.64Q89.02-54.57 89.02-52.43L89.02-52.43L89.02-52.43Q89.02-50.29 87.95-50.29L87.95-50.29L84.53-50.82L84.53-50.82Q77.15-50.82 65.59-34.88L65.59-34.88L44.30-5.14L44.30-5.14Q30.60 10.81 18.08 10.81L18.08 10.81L18.08 10.81Q9.52 10.81 6.26 6.21L6.26 6.21L6.26 6.21Q3.00 1.60 3.00-7.17ZM76.18 1.39L76.18 1.39L76.18 1.39Q75.01 1.39 74.04 1.07L74.04 1.07L74.04 1.07Q67.20-0.86 67.20-6.63L67.20-6.63L67.20-6.63Q67.20-14.12 76.61-23.97L76.61-23.97L76.61-23.97Q86.03-33.81 93.52-33.81L93.52-33.81L93.52-33.81Q95.98-33.81 97.53-32.47L97.53-32.47L97.53-32.47Q99.08-31.14 99.08-29.21L99.08-29.21L99.08-29.21Q99.08-23.22 90.04-17.76L90.04-17.76L90.04-17.76Q81.00-12.30 75.33-12.30L75.33-12.30L75.33-12.30Q74.47-12.30 73.83-12.52L73.83-12.52L73.83-12.52Q72.23-9.63 72.23-6.42L72.23-6.42L72.23-6.42Q72.23-0.86 77.52-0.86L77.52-0.86L77.52-0.86Q82.82-0.86 91.27-8.03L91.27-8.03L91.27-8.03Q97.80-13.27 102.40-19.15L102.40-19.15L102.40-19.15Q103.36-20.44 104.06-20.44L104.06-20.44L104.06-20.44Q104.75-20.44 104.75-19.79L104.75-19.79L104.75-19.79Q104.75-19.15 103.90-17.98L103.90-17.98L103.90-17.98Q98.12-10.38 89.99-4.49L89.99-4.49L89.99-4.49Q81.86 1.39 76.18 1.39ZM96.41-29.43L96.41-29.43L96.41-29.43Q96.41-30.71 93.68-30.71L93.68-30.71L93.68-30.71Q90.95-30.71 85.92-26.54L85.92-26.54L85.92-26.54Q79.18-20.97 75.44-14.87L75.44-14.87L75.44-14.87Q76.08-14.66 76.83-14.66L76.83-14.66L76.83-14.66Q80.89-14.66 87.69-18.99L87.69-18.99L87.69-18.99Q94.48-23.33 96.19-28.46L96.19-28.46L96.19-28.46Q96.41-29.00 96.41-29.43ZM126.15-22.68L126.15-22.68L126.15-22.68Q126.15-18.94 118.98-10.16L118.98-10.16L118.98-10.16Q110.53 0.21 104.54 0.21L104.54 0.21L102.83 0.21L102.83 0.21Q100.05 0.21 98.44-2.67L98.44-2.67L98.44-2.67Q97.16-4.71 97.16-7.17L97.16-7.17L97.16-7.17Q97.16-13.59 106.52-25.20L106.52-25.20L106.52-25.20Q115.88-36.81 121.66-36.81L121.66-36.81L121.66-36.81Q127.12-36.81 127.12-31.03L127.12-31.03L127.12-31.03Q127.12-29.53 126.58-27.18L126.58-27.18L126.58-27.18Q126.69-26.86 128.61-26.86L128.61-26.86L128.61-26.86Q130.54-26.86 134.50-28.89L134.50-28.89L134.50-28.89Q134.39-27.07 126.05-23.65L126.05-23.65L126.05-23.65Q126.15-23.22 126.15-22.68ZM119.20-28.25L119.20-28.25L119.20-28.25Q115.56-28.25 108.87-19.69L108.87-19.69L108.87-19.69Q102.19-11.13 102.19-7.06L102.19-7.06L102.19-7.06Q102.19-3.00 104.75-3.00L104.75-3.00L104.75-3.00Q109.35-3.00 116.42-11.34L116.42-11.34L116.42-11.34Q123.48-19.69 123.48-23.33L123.48-23.33L123.48-23.33Q121.77-24.29 119.20-28.25ZM150.12 0.54L150.12 0.54L150.12 0.54Q142.10 0.54 142.10-8.35L142.10-8.35L142.10-8.35Q142.10-12.84 144.45-18.19L144.45-18.19L144.45-18.19Q146.80-23.54 149.59-27.18L149.59-27.18L149.59-27.18Q149.05-27.07 148.19-27.07L148.19-27.07L148.19-27.07Q145.63-27.07 143.92-30.71L143.92-30.71L136.00-20.44L136.00-20.44Q129.36-12.20 128.29-12.20L128.29-12.20L128.29-12.20Q127.76-12.20 127.76-12.63L127.76-12.63L127.76-12.63Q127.76-13.70 129.58-15.73L129.58-15.73L129.58-15.73Q138.89-26.54 142.74-34.03L142.74-34.03L142.74-34.03Q145.20-43.34 148.94-43.34L148.94-43.34L148.94-43.34Q151.41-43.34 151.41-41.20L151.41-41.20L151.41-41.20Q151.41-39.05 148.73-35.74L148.73-35.74L146.16-32.31L146.16-32.31Q146.16-30.07 149.48-30.07L149.48-30.07L149.48-30.07Q151.41-30.07 153.76-31.46L153.76-31.46L156.54-33.17L156.54-33.17Q156.75-33.28 157.61-33.28L157.61-33.28L157.61-33.28Q158.47-33.28 159.43-32.21L159.43-32.21L159.43-32.21Q160.39-31.14 160.07-30.28L160.07-30.28L152.69-20.97L152.69-20.97Q145.84-12.20 145.84-7.12L145.84-7.12L145.84-7.12Q145.84-2.03 150.55-2.03L150.55-2.03L150.55-2.03Q155.47-2.03 162.64-7.28L162.64-7.28L162.64-7.28Q166.92-10.38 170.45-14.23L170.45-14.23L170.45-14.23Q173.77-18.08 174.09-18.08L174.09-18.08L174.09-18.08Q174.84-18.08 174.84-17.28L174.84-17.28L174.84-17.28Q174.84-16.48 173.88-15.41L173.88-15.41L170.45-11.56L170.45-11.56Q167.56-8.56 164.03-5.78L164.03-5.78L164.03-5.78Q155.58 0.54 150.12 0.54ZM175.16 1.28L175.16 1.28L175.16 1.28Q168.85 1.28 168.85-5.88L168.85-5.88L168.85-5.88Q168.85-11.66 175.16-21.88L175.16-21.88L175.16-21.88Q181.47-32.10 185.32-32.21L185.32-32.21L185.32-32.21Q186.39-32.21 187.73-31.35L187.73-31.35L187.73-31.35Q189.07-30.50 189.07-29.64L189.07-29.64L189.07-29.64Q188.53-28.89 187.79-27.98L187.79-27.98L187.79-27.98Q187.04-27.07 186.18-26.00L186.18-26.00L186.18-26.00Q185.32-24.93 183.83-22.95L183.83-22.95L183.83-22.95Q182.33-20.97 180.94-19.15L180.94-19.15L180.94-19.15Q172.91-8.77 172.91-4.92L172.91-4.92L172.91-4.92Q172.91-1.07 175.80-1.07L175.80-1.07L175.80-1.07Q179.65-1.07 186.45-6.74L186.45-6.74L186.45-6.74Q193.24-12.41 196.35-15.84L196.35-15.84L196.35-15.84Q197.09-16.91 197.74-16.91L197.74-16.91L197.74-16.91Q198.16-16.91 198.16-16.26L198.16-16.26L198.16-16.26Q198.16-13.05 188.43-5.88L188.43-5.88L188.43-5.88Q178.69 1.28 175.16 1.28ZM201.05-43.23L201.05-43.23L201.05-43.23Q199.88-42.37 194.37-39.00L194.37-39.00L194.37-39.00Q188.86-35.63 188.16-35.63L188.16-35.63L188.16-35.63Q187.46-35.63 187.46-36.06L187.46-36.06L187.46-36.06Q187.46-36.49 187.79-36.81L187.79-36.81L199.13-45.69L199.13-45.69Q200.20-46.65 200.84-46.65L200.84-46.65L200.84-46.65Q201.91-46.65 201.91-45.37L201.91-45.37L201.91-45.37Q201.91-44.08 201.05-43.23ZM230.16-31.99L230.16-31.99L231.66-32.31L231.66-32.31Q232.83-32.31 233.90-31.35L233.90-31.35L233.90-31.35Q234.97-30.39 234.97-29.85L234.97-29.85L234.97-29.85Q234.97-29.32 228.34-19.53L228.34-19.53L228.34-19.53Q221.70-9.74 221.70-5.88L221.70-5.88L221.70-5.88Q221.70-5.56 221.81-5.24L221.81-5.24L221.81-5.24Q222.35-2.78 224.17-2.78L224.17-2.78L224.17-2.78Q229.73-2.78 244.50-21.19L244.50-21.19L244.50-21.19Q244.82-21.61 245.24-21.61L245.24-21.61L245.24-21.61Q245.67-21.61 245.67-20.81L245.67-20.81L245.67-20.81Q245.67-20.01 244.71-18.72L244.71-18.72L244.71-18.72Q231.01-0.43 223.84-0.43L223.84-0.43L223.84-0.43Q222.88-0.43 222.03-0.75L222.03-0.75L222.03-0.75Q217.32-2.57 217.32-7.81L217.32-7.81L217.32-7.81Q217.32-9.63 217.75-11.45L217.75-11.45L211.11-5.03L211.11-5.03Q204.80 0.54 201.96 0.54L201.96 0.54L201.96 0.54Q199.13 0.54 196.56-1.28L196.56-1.28L196.56-1.28Q193.67-3.42 193.67-6.96L193.67-6.96L193.67-6.96Q193.67-14.77 204.58-25.63L204.58-25.63L204.58-25.63Q215.50-36.49 224.59-36.49L224.59-36.49L224.59-36.49Q228.12-36.49 229.30-34.03L229.30-34.03L229.30-34.03Q229.62-33.17 229.84-32.58L229.84-32.58L229.84-32.58Q230.05-31.99 230.16-31.99ZM198.16-5.67L198.16-5.67L198.16-5.67Q198.16-1.82 200.84-1.82L200.84-1.82L200.84-1.82Q207.05-1.82 217.75-15.41L217.75-15.41L229.09-31.03L229.09-31.03Q228.23-32.53 226.31-32.53L226.31-32.53L226.31-32.53Q219.78-32.53 208.97-22.42L208.97-22.42L208.97-22.42Q198.16-12.30 198.16-5.67ZM387.88-47.83L387.88-47.83L387.88-47.83Q387.88-42.37 382.42-35.84L382.42-35.84L382.42-35.84Q376.96-29.32 365.89-25.25L365.89-25.25L365.89-25.25Q354.81-21.19 344.38-21.19L344.38-21.19L344.38-21.19Q333.95-21.19 327.85-23.86L327.85-23.86L327.85-23.86Q314.37-4.07 310.30 0L310.30 0L310.30 0Q298.74 11.56 282.69 11.56L282.69 11.56L282.69 11.56Q273.60 11.56 269.05 7.33L269.05 7.33L269.05 7.33Q264.50 3.10 264.50-3.64L264.50-3.64L264.50-3.64Q264.50-12.95 271.99-21.19L271.99-21.19L271.99-21.19Q280.23-30.28 292.75-30.28L292.75-30.28L292.75-30.28Q297.89-30.28 301.42-27.93L301.42-27.93L301.42-27.93Q304.95-25.57 304.95-20.76L304.95-20.76L304.95-20.76Q304.95-17.55 301.31-13.05L301.31-13.05L301.31-13.05Q297.67-8.56 296.82-8.56L296.82-8.56L296.82-8.56Q296.60-8.56 296.60-8.99L296.60-8.99L296.60-8.99Q296.60-9.42 296.93-9.84L296.93-9.84L296.93-9.84Q300.35-14.87 300.35-19.10L300.35-19.10L300.35-19.10Q300.35-23.33 297.73-25.63L297.73-25.63L297.73-25.63Q295.11-27.93 291.25-27.93L291.25-27.93L291.25-27.93Q282.27-27.93 275.36-19.74L275.36-19.74L275.36-19.74Q268.46-11.56 268.46-3.21L268.46-3.21L268.46-3.21Q268.46 2.14 271.83 5.46L271.83 5.46L271.83 5.46Q275.20 8.77 282.27 8.77L282.27 8.77L282.27 8.77Q295.43 8.77 304.84-0.11L304.84-0.11L304.84-0.11Q310.30-5.24 315.86-15.09L315.86-15.09L325.17-31.89L325.17-31.89Q332.02-42.91 341.12-64.63L341.12-64.63L341.12-64.63Q340.15-64.63 339.19-64.63L339.19-64.63L339.19-64.63Q324.75-64.63 310.19-61.47L310.19-61.47L310.19-61.47Q295.64-58.31 288.15-52.43L288.15-52.43L288.15-52.43Q284.94-49.97 284.94-47.62L284.94-47.62L284.94-47.62Q284.94-45.26 287.46-43.82L287.46-43.82L287.46-43.82Q289.97-42.37 293.39-42.37L293.39-42.37L293.39-42.37Q296.82-42.37 301.90-43.71L301.90-43.71L301.90-43.71Q306.98-45.05 309.55-47.29L309.55-47.29L309.55-47.29Q310.62-48.15 311.05-48.15L311.05-48.15L311.05-48.15Q311.91-48.15 311.37-47.29L311.37-47.29L311.37-47.29Q307.52-42.80 299.71-40.55L299.71-40.55L299.71-40.55Q294.89-39.16 290.18-39.16L290.18-39.16L290.18-39.16Q285.48-39.16 282.48-41.25L282.48-41.25L282.48-41.25Q279.48-43.34 279.48-46.92L279.48-46.92L279.48-46.92Q279.48-50.50 283.34-54.14L283.34-54.14L283.34-54.14Q290.61-61.20 309.34-64.63L309.34-64.63L309.34-64.63Q322.61-66.98 339.83-66.98L339.83-66.98L339.83-66.98Q341.22-66.98 342.72-66.98L342.72-66.98L342.72-66.98Q345.08-69.02 347.00-69.02L347.00-69.02L347.00-69.02Q348.93-69.02 348.93-67.52L348.93-67.52L348.93-67.52Q348.93-67.20 348.82-66.77L348.82-66.77L348.82-66.77Q365.41-65.59 375.68-61.20L375.68-61.20L375.68-61.20Q387.88-56.07 387.88-47.83ZM382.85-48.90L382.85-48.90L382.85-48.90Q382.85-55.64 371.93-59.92L371.93-59.92L371.93-59.92Q362.41-63.66 348.07-64.41L348.07-64.41L344.65-53.71L344.65-53.71Q340.58-43.66 329.03-25.68L329.03-25.68L329.03-25.68Q330.10-25.14 332.66-24.50L332.66-24.50L332.66-24.50Q336.94-23.75 339.30-23.75L339.30-23.75L339.30-23.75Q347.43-23.75 358.02-27.12L358.02-27.12L358.02-27.12Q368.62-30.50 375.73-36.97L375.73-36.97L375.73-36.97Q382.85-43.44 382.85-48.90ZM400.93-22.68L400.93-22.68L400.93-22.68Q400.93-18.94 393.76-10.16L393.76-10.16L393.76-10.16Q385.31 0.21 379.31 0.21L379.31 0.21L377.60 0.21L377.60 0.21Q374.82 0.21 373.22-2.67L373.22-2.67L373.22-2.67Q371.93-4.71 371.93-7.17L371.93-7.17L371.93-7.17Q371.93-13.59 381.29-25.20L381.29-25.20L381.29-25.20Q390.66-36.81 396.44-36.81L396.44-36.81L396.44-36.81Q401.89-36.81 401.89-31.03L401.89-31.03L401.89-31.03Q401.89-29.53 401.36-27.18L401.36-27.18L401.36-27.18Q401.46-26.86 403.39-26.86L403.39-26.86L403.39-26.86Q405.32-26.86 409.27-28.89L409.27-28.89L409.27-28.89Q409.17-27.07 400.82-23.65L400.82-23.65L400.82-23.65Q400.93-23.22 400.93-22.68ZM393.97-28.25L393.97-28.25L393.97-28.25Q390.34-28.25 383.65-19.69L383.65-19.69L383.65-19.69Q376.96-11.13 376.96-7.06L376.96-7.06L376.96-7.06Q376.96-3.00 379.53-3.00L379.53-3.00L379.53-3.00Q384.13-3.00 391.19-11.34L391.19-11.34L391.19-11.34Q398.25-19.69 398.25-23.33L398.25-23.33L398.25-23.33Q396.54-24.29 393.97-28.25ZM407.24-5.35L407.24-5.35L407.24-5.35Q407.24-2.14 410.77-2.14L410.77-2.14L410.77-2.14Q414.30-2.14 419.87-5.88L419.87-5.88L419.87-5.88Q425.43-9.63 430.68-16.05L430.68-16.05L430.68-16.05Q431.96-17.76 432.71-17.76L432.71-17.76L432.71-17.76Q433.46-17.76 433.46-17.12L433.46-17.12L433.46-17.12Q433.46-16.48 429.07-11.56L429.07-11.56L429.07-11.56Q418.37 0.21 411.20 0.21L411.20 0.21L411.20 0.21Q407.67 0.21 405.21-1.44L405.21-1.44L405.21-1.44Q402.75-3.10 402.75-6.58L402.75-6.58L402.75-6.58Q402.75-10.06 404.57-14.66L404.57-14.66L404.57-14.66Q407.67-21.93 414.52-32.96L414.52-32.96L414.52-32.96Q427.04-53.29 432.28-53.29L432.28-53.29L432.28-53.29Q433.35-53.29 434.47-52.48L434.47-52.48L434.47-52.48Q435.60-51.68 435.70-50.72L435.70-50.72L435.70-50.72Q433.24-47.40 426.23-37.98L426.23-37.98L426.23-37.98Q419.23-28.57 416.55-24.45L416.55-24.45L416.55-24.45Q413.88-20.33 412.54-18.30L412.54-18.30L412.54-18.30Q411.20-16.26 410.56-15.14L410.56-15.14L410.56-15.14Q409.92-14.02 409.06-12.20L409.06-12.20L409.06-12.20Q407.24-8.56 407.24-5.35ZM433.78 1.28L433.78 1.28L433.78 1.28Q427.46 1.28 427.46-5.88L427.46-5.88L427.46-5.88Q427.46-11.66 433.78-21.88L433.78-21.88L433.78-21.88Q440.09-32.10 443.94-32.21L443.94-32.21L443.94-32.21Q445.01-32.21 446.35-31.35L446.35-31.35L446.35-31.35Q447.69-30.50 447.69-29.64L447.69-29.64L447.69-29.64Q447.15-28.89 446.40-27.98L446.40-27.98L446.40-27.98Q445.65-27.07 444.80-26.00L444.80-26.00L444.80-26.00Q443.94-24.93 442.44-22.95L442.44-22.95L442.44-22.95Q440.95-20.97 439.56-19.15L439.56-19.15L439.56-19.15Q431.53-8.77 431.53-4.92L431.53-4.92L431.53-4.92Q431.53-1.07 434.42-1.07L434.42-1.07L434.42-1.07Q438.27-1.07 445.07-6.74L445.07-6.74L445.07-6.74Q451.86-12.41 454.96-15.84L454.96-15.84L454.96-15.84Q455.71-16.91 456.36-16.91L456.36-16.91L456.36-16.91Q456.78-16.91 456.78-16.26L456.78-16.26L456.78-16.26Q456.78-13.05 447.05-5.88L447.05-5.88L447.05-5.88Q437.31 1.28 433.78 1.28ZM459.67-43.23L459.67-43.23L459.67-43.23Q458.50-42.37 452.98-39.00L452.98-39.00L452.98-39.00Q447.47-35.63 446.78-35.63L446.78-35.63L446.78-35.63Q446.08-35.63 446.08-36.06L446.08-36.06L446.08-36.06Q446.08-36.49 446.40-36.81L446.40-36.81L457.75-45.69L457.75-45.69Q458.82-46.65 459.46-46.65L459.46-46.65L459.46-46.65Q460.53-46.65 460.53-45.37L460.53-45.37L460.53-45.37Q460.53-44.08 459.67-43.23ZM481.18-34.45L481.18-34.45L496.59-34.67L496.59-34.67Q496.91-34.45 496.91-34.35L496.91-34.35L496.91-34.35Q496.91-33.38 483.59-31.67L483.59-31.67L483.59-31.67Q470.26-29.96 469.19-29.64L469.19-29.64L469.19-29.64Q467.16-27.82 461.70-18.78L461.70-18.78L461.70-18.78Q456.25-9.74 456.25-5.56L456.25-5.56L456.25-5.56Q456.25-1.60 461.70-1.60L461.70-1.60L461.70-1.60Q464.27-1.60 468.45-3.21L468.45-3.21L468.45-3.21Q472.62-4.81 474.87-6.21L474.87-6.21L474.87-6.21Q480.86-9.95 487.71-17.23L487.71-17.23L487.71-17.23Q489.20-18.72 489.74-18.72L489.74-18.72L489.74-18.72Q490.06-18.72 490.06-18.08L490.06-18.08L490.06-18.08Q490.06-17.44 488.45-15.52L488.45-15.52L488.45-15.52Q482.89-8.67 475.94-4.49L475.94-4.49L475.94-4.49Q467.59 0.64 459.99 0.64L459.99 0.64L459.99 0.64Q456.68 0.64 454.59-0.80L454.59-0.80L454.59-0.80Q452.50-2.25 452.50-6.63L452.50-6.63L452.50-6.63Q452.50-11.02 456.36-18.67L456.36-18.67L456.36-18.67Q460.21-26.32 462.24-30.07L462.24-30.07L462.24-30.07Q460.74-29.75 459.67-29.75L459.67-29.75L459.67-29.75Q456.57-29.75 456.57-32.21L456.57-32.21L456.57-32.21Q456.57-34.03 459.14-34.77L459.14-34.77L459.14-34.77Q459.46-34.77 460.10-34.88L460.10-34.88L466.31-34.88L466.31-34.88Q468.23-37.34 470.69-40.55L470.69-40.55L470.69-40.55Q473.69-44.41 474.76-44.41L474.76-44.41L474.76-44.41Q475.83-44.41 477.43-43.55L477.43-43.55L477.43-43.55Q479.04-42.69 479.04-41.52L479.04-41.52L479.04-41.52Q479.04-40.34 473.90-34.56L473.90-34.56L473.90-34.56Q476.69-34.45 481.18-34.45ZM508.25-43.66L508.25-43.66Q509.86-43.66 511.30-42.64L511.30-42.64L511.30-42.64Q512.74-41.62 512.74-40.23L512.74-40.23L512.74-40.23Q512.74-38.84 511.41-37.82L511.41-37.82L511.41-37.82Q510.07-36.81 508.46-36.81L508.46-36.81L508.46-36.81Q506.86-36.81 505.52-37.98L505.52-37.98L505.52-37.98Q504.18-39.16 504.18-40.66L504.18-40.66L504.18-40.66Q504.18-43.66 508.25-43.66L508.25-43.66ZM488.88 1.18L488.88 1.18L488.88 1.18Q483.43 1.18 483.43-5.88L483.43-5.88L483.43-5.88Q483.43-11.66 489.74-21.88L489.74-21.88L489.74-21.88Q496.05-32.10 499.90-32.21L499.90-32.21L499.90-32.21Q500.97-32.21 502.31-31.35L502.31-31.35L502.31-31.35Q503.65-30.50 503.65-29.64L503.65-29.64L503.65-29.64Q503.11-28.89 502.37-27.98L502.37-27.98L502.37-27.98Q501.62-27.07 500.76-26.00L500.76-26.00L500.76-26.00Q499.90-24.93 498.41-22.95L498.41-22.95L498.41-22.95Q496.91-20.97 495.52-19.15L495.52-19.15L495.52-19.15Q487.49-8.77 487.49-4.87L487.49-4.87L487.49-4.87Q487.49-0.96 490.17-0.96L490.17-0.96L490.17-0.96Q492.41-0.96 496.27-3.42L496.27-3.42L496.27-3.42Q505.25-8.99 510.50-15.62L510.50-15.62L510.50-15.62Q512.42-18.08 513.12-18.08L513.12-18.08L513.12-18.08Q513.81-18.08 513.81-17.23L513.81-17.23L513.81-17.23Q513.81-16.37 511.35-13.80L511.35-13.80L511.35-13.80Q508.89-11.23 507.45-9.74L507.45-9.74L507.45-9.74Q506.00-8.24 505.47-7.76L505.47-7.76L505.47-7.76Q504.93-7.28 503.49-5.94L503.49-5.94L503.49-5.94Q502.04-4.60 501.30-4.07L501.30-4.07L501.30-4.07Q500.55-3.53 499.16-2.46L499.16-2.46L499.16-2.46Q497.76-1.39 496.69-0.91L496.69-0.91L496.69-0.91Q495.62-0.43 494.23 0.21L494.23 0.21L494.23 0.21Q491.99 1.18 488.88 1.18ZM517.35 1.39L517.35 1.39L517.35 1.39Q516.17 1.39 515.21 1.07L515.21 1.07L515.21 1.07Q508.36-0.86 508.36-6.63L508.36-6.63L508.36-6.63Q508.36-14.12 517.77-23.97L517.77-23.97L517.77-23.97Q527.19-33.81 534.68-33.81L534.68-33.81L534.68-33.81Q537.14-33.81 538.69-32.47L538.69-32.47L538.69-32.47Q540.24-31.14 540.24-28.84L540.24-28.84L540.24-28.84Q540.24-26.54 538.85-24.02L538.85-24.02L538.85-24.02Q537.46-21.51 534.68-21.51L534.68-21.51L534.68-21.51Q531.90-21.51 531.90-23.22L531.90-23.22L531.90-23.22Q531.90-24.40 533.34-26.80L533.34-26.80L533.34-26.80Q534.79-29.21 534.79-29.37L534.79-29.37L534.79-29.37Q534.79-29.53 534.47-29.53L534.47-29.53L534.47-29.53Q531.47-29.21 526.28-25.25L526.28-25.25L526.28-25.25Q521.09-21.29 519.16-18.62L519.16-18.62L514.99-12.52L514.99-12.52Q513.92-10.81 513.44-8.45L513.44-8.45L513.44-8.45Q512.96-6.10 512.96-4.92L512.96-4.92L512.96-4.92Q512.96-3.75 514.30-2.25L514.30-2.25L514.30-2.25Q515.63-0.75 518.09-0.75L518.09-0.75L518.09-0.75Q523.44-0.75 531.36-7.01L531.36-7.01L531.36-7.01Q539.28-13.27 543.56-18.94L543.56-18.94L543.56-18.94Q544.10-19.58 544.84-19.58L544.84-19.58L544.84-19.58Q545.59-19.58 545.59-19.15L545.59-19.15L545.59-19.15Q545.59-18.72 545.06-18.08L545.06-18.08L545.06-18.08Q539.17-10.27 530.99-4.44L530.99-4.44L530.99-4.44Q522.80 1.39 517.35 1.39ZM575.02-31.99L575.02-31.99L576.52-32.31L576.52-32.31Q577.69-32.31 578.76-31.35L578.76-31.35L578.76-31.35Q579.83-30.39 579.83-29.85L579.83-29.85L579.83-29.85Q579.83-29.32 573.20-19.53L573.20-19.53L573.20-19.53Q566.57-9.74 566.57-5.88L566.57-5.88L566.57-5.88Q566.57-5.56 566.67-5.24L566.67-5.24L566.67-5.24Q567.21-2.78 569.03-2.78L569.03-2.78L569.03-2.78Q574.59-2.78 589.36-21.19L589.36-21.19L589.36-21.19Q589.68-21.61 590.11-21.61L590.11-21.61L590.11-21.61Q590.53-21.61 590.53-20.81L590.53-20.81L590.53-20.81Q590.53-20.01 589.57-18.72L589.57-18.72L589.57-18.72Q575.87-0.43 568.71-0.43L568.71-0.43L568.71-0.43Q567.74-0.43 566.89-0.75L566.89-0.75L566.89-0.75Q562.18-2.57 562.18-7.81L562.18-7.81L562.18-7.81Q562.18-9.63 562.61-11.45L562.61-11.45L555.97-5.03L555.97-5.03Q549.66 0.54 546.82 0.54L546.82 0.54L546.82 0.54Q543.99 0.54 541.42-1.28L541.42-1.28L541.42-1.28Q538.53-3.42 538.53-6.96L538.53-6.96L538.53-6.96Q538.53-14.77 549.45-25.63L549.45-25.63L549.45-25.63Q560.36-36.49 569.45-36.49L569.45-36.49L569.45-36.49Q572.99-36.49 574.16-34.03L574.16-34.03L574.16-34.03Q574.48-33.17 574.70-32.58L574.70-32.58L574.70-32.58Q574.91-31.99 575.02-31.99ZM543.02-5.67L543.02-5.67L543.02-5.67Q543.02-1.82 545.70-1.82L545.70-1.82L545.70-1.82Q551.91-1.82 562.61-15.41L562.61-15.41L573.95-31.03L573.95-31.03Q573.09-32.53 571.17-32.53L571.17-32.53L571.17-32.53Q564.64-32.53 553.83-22.42L553.83-22.42L553.83-22.42Q543.02-12.30 543.02-5.67Z" fill="#fc06c3"></path></g></g><style>text {
  font-size: 64px;
  font-family: Arial Black;
  dominant-baseline: central;
  text-anchor: middle;
}</style></svg>